<mxfile host="65bd71144e">
    <diagram id="mAKORPxYatndPDqyqi2Z" name="Page-1">
        <mxGraphModel dx="1431" dy="748" grid="1" gridSize="10" guides="1" tooltips="1" connect="1" arrows="1" fold="1" page="1" pageScale="1" pageWidth="827" pageHeight="1169" math="0" shadow="0">
            <root>
                <mxCell id="0"/>
                <mxCell id="1" parent="0"/>
                <mxCell id="17" value="&lt;font style=&quot;font-size: 14px;&quot;&gt;Timeline&lt;/font&gt;" style="rounded=0;whiteSpace=wrap;html=1;fontStyle=0;labelBackgroundColor=none;" parent="1" vertex="1">
                    <mxGeometry x="200" y="60" width="310" height="40" as="geometry"/>
                </mxCell>
                <mxCell id="2" value="" style="rounded=0;whiteSpace=wrap;html=1;" parent="1" vertex="1">
                    <mxGeometry width="820" height="60" as="geometry"/>
                </mxCell>
                <mxCell id="3" value="LOGO" style="text;html=1;strokeColor=none;fillColor=none;align=center;verticalAlign=middle;whiteSpace=wrap;rounded=0;fontStyle=1;fontSize=16;" parent="1" vertex="1">
                    <mxGeometry x="370" y="15" width="60" height="30" as="geometry"/>
                </mxCell>
                <mxCell id="5" value="" style="rounded=0;whiteSpace=wrap;html=1;" parent="1" vertex="1">
                    <mxGeometry y="60" width="200" height="670" as="geometry"/>
                </mxCell>
                <mxCell id="8" value="" style="ellipse;whiteSpace=wrap;html=1;aspect=fixed;" parent="1" vertex="1">
                    <mxGeometry x="30" y="80" width="40" height="40" as="geometry"/>
                </mxCell>
                <mxCell id="4" value="" style="shape=actor;whiteSpace=wrap;html=1;" parent="1" vertex="1">
                    <mxGeometry x="40" y="90" width="20" height="25" as="geometry"/>
                </mxCell>
                <mxCell id="9" value="Username" style="text;strokeColor=none;fillColor=none;align=left;verticalAlign=middle;spacingLeft=4;spacingRight=4;overflow=hidden;points=[[0,0.5],[1,0.5]];portConstraint=eastwest;rotatable=0;whiteSpace=wrap;html=1;labelPosition=center;verticalLabelPosition=middle;" parent="1" vertex="1">
                    <mxGeometry x="80" y="75" width="80" height="30" as="geometry"/>
                </mxCell>
                <mxCell id="10" value="&lt;span style=&quot;color: rgb(240, 240, 240); font-family: Helvetica; font-size: 12px; font-style: normal; font-variant-ligatures: normal; font-variant-caps: normal; font-weight: 400; letter-spacing: normal; orphans: 2; text-indent: 0px; text-transform: none; widows: 2; word-spacing: 0px; -webkit-text-stroke-width: 0px; background-color: rgb(42, 37, 47); text-decoration-thickness: initial; text-decoration-style: initial; text-decoration-color: initial; float: none; display: inline !important;&quot;&gt;&amp;nbsp;@username&lt;/span&gt;" style="text;whiteSpace=wrap;html=1;align=left;labelPosition=center;verticalLabelPosition=middle;verticalAlign=middle;" parent="1" vertex="1">
                    <mxGeometry x="80" y="95" width="100" height="30" as="geometry"/>
                </mxCell>
                <mxCell id="11" value="&lt;b&gt;&lt;font style=&quot;font-size: 16px;&quot;&gt;XXX&lt;/font&gt;&lt;/b&gt;&lt;br&gt;followers" style="text;strokeColor=none;fillColor=none;align=center;verticalAlign=middle;spacingLeft=4;spacingRight=4;overflow=hidden;points=[[0,0.5],[1,0.5]];portConstraint=eastwest;rotatable=0;whiteSpace=wrap;html=1;" parent="1" vertex="1">
                    <mxGeometry x="15" y="140" width="80" height="50" as="geometry"/>
                </mxCell>
                <mxCell id="12" value="&lt;b&gt;&lt;font style=&quot;font-size: 16px;&quot;&gt;XXX&lt;/font&gt;&lt;/b&gt;&lt;br&gt;following" style="text;strokeColor=none;fillColor=none;align=center;verticalAlign=middle;spacingLeft=4;spacingRight=4;overflow=hidden;points=[[0,0.5],[1,0.5]];portConstraint=eastwest;rotatable=0;whiteSpace=wrap;html=1;" parent="1" vertex="1">
                    <mxGeometry x="105" y="140" width="80" height="50" as="geometry"/>
                </mxCell>
                <mxCell id="13" value="" style="rounded=1;whiteSpace=wrap;html=1;fontSize=16;fillColor=#009999;" parent="1" vertex="1">
                    <mxGeometry x="40" y="210" width="120" height="40" as="geometry"/>
                </mxCell>
                <mxCell id="14" value="See my profil" style="text;html=1;strokeColor=none;fillColor=none;align=center;verticalAlign=middle;whiteSpace=wrap;rounded=0;fontSize=16;" parent="1" vertex="1">
                    <mxGeometry x="50" y="215" width="100" height="30" as="geometry"/>
                </mxCell>
                <mxCell id="21" value="" style="rounded=0;whiteSpace=wrap;html=1;" parent="1" vertex="1">
                    <mxGeometry x="200" y="180" width="620" height="120" as="geometry"/>
                </mxCell>
                <mxCell id="24" value="" style="ellipse;whiteSpace=wrap;html=1;aspect=fixed;" parent="1" vertex="1">
                    <mxGeometry x="250" y="192.5" width="25" height="25" as="geometry"/>
                </mxCell>
                <mxCell id="25" value="" style="shape=actor;whiteSpace=wrap;html=1;" parent="1" vertex="1">
                    <mxGeometry x="258" y="200.5" width="10" height="15" as="geometry"/>
                </mxCell>
                <mxCell id="26" value="Username" style="text;strokeColor=none;fillColor=none;align=left;verticalAlign=middle;spacingLeft=4;spacingRight=4;overflow=hidden;points=[[0,0.5],[1,0.5]];portConstraint=eastwest;rotatable=0;whiteSpace=wrap;html=1;labelPosition=center;verticalLabelPosition=middle;fontStyle=1" parent="1" vertex="1">
                    <mxGeometry x="279" y="190" width="80" height="30" as="geometry"/>
                </mxCell>
                <mxCell id="27" value="&lt;span style=&quot;color: rgb(240, 240, 240); font-family: Helvetica; font-size: 12px; font-style: normal; font-variant-ligatures: normal; font-variant-caps: normal; font-weight: 400; letter-spacing: normal; orphans: 2; text-indent: 0px; text-transform: none; widows: 2; word-spacing: 0px; -webkit-text-stroke-width: 0px; background-color: rgb(42, 37, 47); text-decoration-thickness: initial; text-decoration-style: initial; text-decoration-color: initial; float: none; display: inline !important;&quot;&gt;&amp;nbsp;@username&lt;/span&gt;" style="text;whiteSpace=wrap;html=1;align=left;labelPosition=center;verticalLabelPosition=middle;verticalAlign=middle;fillColor=none;" parent="1" vertex="1">
                    <mxGeometry x="349" y="190" width="100" height="30" as="geometry"/>
                </mxCell>
                <mxCell id="28" value="Lorem ipsum dolor sit, amet consectetur adipisicing elit. Quod tenetur voluptas est facere. Repudiandae deleniti iure aperiam ipsam vero doloribus voluptate magni, inventore magnam! Et velit ipsum porro deserunt harum!" style="text;strokeColor=none;fillColor=none;align=left;verticalAlign=middle;spacingLeft=4;spacingRight=4;overflow=hidden;points=[[0,0.5],[1,0.5]];portConstraint=eastwest;rotatable=0;whiteSpace=wrap;labelPosition=center;verticalLabelPosition=middle;fontFamily=Courier New;labelBackgroundColor=none;fontColor=default;" parent="1" vertex="1">
                    <mxGeometry x="279" y="210" width="500" height="69.5" as="geometry"/>
                </mxCell>
                <mxCell id="44" value="" style="group" parent="1" vertex="1" connectable="0">
                    <mxGeometry x="660" y="280" width="116" height="11" as="geometry"/>
                </mxCell>
                <mxCell id="38" value="♡" style="text;strokeColor=none;fillColor=none;align=left;verticalAlign=middle;whiteSpace=wrap;rounded=0;labelBackgroundColor=none;fontFamily=Courier New;fontSize=16;fontColor=#FFFFFF;fontStyle=1;container=0;" parent="44" vertex="1">
                    <mxGeometry x="65" y="1" width="22" height="10" as="geometry"/>
                </mxCell>
                <mxCell id="39" value="&lt;font style=&quot;font-size: 11px;&quot;&gt;xx&lt;/font&gt;" style="text;html=1;strokeColor=none;fillColor=none;align=left;verticalAlign=middle;whiteSpace=wrap;rounded=0;labelBackgroundColor=none;fontFamily=Courier New;fontSize=16;fontColor=#FFFFFF;container=0;" parent="44" vertex="1">
                    <mxGeometry x="86" width="30" height="10" as="geometry"/>
                </mxCell>
                <mxCell id="41" value="&lt;font style=&quot;font-size: 11px;&quot;&gt;xx&lt;/font&gt;" style="text;html=1;strokeColor=none;fillColor=none;align=left;verticalAlign=middle;whiteSpace=wrap;rounded=0;labelBackgroundColor=none;fontFamily=Courier New;fontSize=16;fontColor=#FFFFFF;container=0;" parent="44" vertex="1">
                    <mxGeometry x="25" y="1" width="30" height="10" as="geometry"/>
                </mxCell>
                <mxCell id="35" value="" style="edgeStyle=segmentEdgeStyle;endArrow=block;html=1;curved=0;rounded=0;endSize=1.2557692307692307;startSize=8;strokeWidth=1;fontFamily=Courier New;fontSize=12;fontColor=default;shape=flexArrow;endWidth=1.945266272189349;endFill=0;width=2.8846153846153846;" parent="44" edge="1">
                    <mxGeometry width="50" height="50" relative="1" as="geometry">
                        <mxPoint x="4" y="9" as="sourcePoint"/>
                        <mxPoint x="17" y="-1" as="targetPoint"/>
                        <Array as="points">
                            <mxPoint x="17" y="9"/>
                        </Array>
                    </mxGeometry>
                </mxCell>
                <mxCell id="36" value="" style="edgeStyle=segmentEdgeStyle;endArrow=block;html=1;curved=0;rounded=0;endSize=1.2557692307692307;startSize=8;strokeWidth=1;fontFamily=Courier New;fontSize=12;fontColor=default;shape=flexArrow;endWidth=1.945266272189349;endFill=0;width=2.8846153846153846;" parent="44" edge="1">
                    <mxGeometry width="50" height="50" relative="1" as="geometry">
                        <mxPoint x="13" as="sourcePoint"/>
                        <mxPoint x="-1.1368683772161603e-13" y="10" as="targetPoint"/>
                        <Array as="points">
                            <mxPoint/>
                        </Array>
                    </mxGeometry>
                </mxCell>
                <mxCell id="45" value="" style="rounded=0;whiteSpace=wrap;html=1;" parent="1" vertex="1">
                    <mxGeometry x="200" y="300" width="620" height="120" as="geometry"/>
                </mxCell>
                <mxCell id="46" value="" style="ellipse;whiteSpace=wrap;html=1;aspect=fixed;" parent="1" vertex="1">
                    <mxGeometry x="250" y="312.5" width="25" height="25" as="geometry"/>
                </mxCell>
                <mxCell id="47" value="" style="shape=actor;whiteSpace=wrap;html=1;" parent="1" vertex="1">
                    <mxGeometry x="258" y="320.5" width="10" height="15" as="geometry"/>
                </mxCell>
                <mxCell id="48" value="Username" style="text;strokeColor=none;fillColor=none;align=left;verticalAlign=middle;spacingLeft=4;spacingRight=4;overflow=hidden;points=[[0,0.5],[1,0.5]];portConstraint=eastwest;rotatable=0;whiteSpace=wrap;html=1;labelPosition=center;verticalLabelPosition=middle;fontStyle=1" parent="1" vertex="1">
                    <mxGeometry x="279" y="310" width="80" height="30" as="geometry"/>
                </mxCell>
                <mxCell id="49" value="&lt;span style=&quot;color: rgb(240, 240, 240); font-family: Helvetica; font-size: 12px; font-style: normal; font-variant-ligatures: normal; font-variant-caps: normal; font-weight: 400; letter-spacing: normal; orphans: 2; text-indent: 0px; text-transform: none; widows: 2; word-spacing: 0px; -webkit-text-stroke-width: 0px; background-color: rgb(42, 37, 47); text-decoration-thickness: initial; text-decoration-style: initial; text-decoration-color: initial; float: none; display: inline !important;&quot;&gt;&amp;nbsp;@username&lt;/span&gt;" style="text;whiteSpace=wrap;html=1;align=left;labelPosition=center;verticalLabelPosition=middle;verticalAlign=middle;fillColor=none;" parent="1" vertex="1">
                    <mxGeometry x="349" y="310" width="100" height="30" as="geometry"/>
                </mxCell>
                <mxCell id="50" value="Lorem ipsum dolor sit, amet consectetur adipisicing elit. Quod tenetur voluptas est facere. Repudiandae deleniti iure aperiam ipsam vero doloribus voluptate magni, inventore magnam! Et velit ipsum porro deserunt harum!" style="text;strokeColor=none;fillColor=none;align=left;verticalAlign=middle;spacingLeft=4;spacingRight=4;overflow=hidden;points=[[0,0.5],[1,0.5]];portConstraint=eastwest;rotatable=0;labelPosition=center;verticalLabelPosition=middle;fontFamily=Courier New;labelBackgroundColor=none;fontColor=default;whiteSpace=wrap;" parent="1" vertex="1">
                    <mxGeometry x="279" y="330" width="500" height="69.5" as="geometry"/>
                </mxCell>
                <mxCell id="51" value="" style="group" parent="1" vertex="1" connectable="0">
                    <mxGeometry x="660" y="400" width="116" height="11" as="geometry"/>
                </mxCell>
                <mxCell id="52" value="♡" style="text;strokeColor=none;fillColor=none;align=left;verticalAlign=middle;whiteSpace=wrap;rounded=0;labelBackgroundColor=none;fontFamily=Courier New;fontSize=16;fontColor=#FFFFFF;fontStyle=1;container=0;" parent="51" vertex="1">
                    <mxGeometry x="65" y="1" width="22" height="10" as="geometry"/>
                </mxCell>
                <mxCell id="53" value="&lt;font style=&quot;font-size: 11px;&quot;&gt;xx&lt;/font&gt;" style="text;html=1;strokeColor=none;fillColor=none;align=left;verticalAlign=middle;whiteSpace=wrap;rounded=0;labelBackgroundColor=none;fontFamily=Courier New;fontSize=16;fontColor=#FFFFFF;container=0;" parent="51" vertex="1">
                    <mxGeometry x="86" width="30" height="10" as="geometry"/>
                </mxCell>
                <mxCell id="54" value="&lt;font style=&quot;font-size: 11px;&quot;&gt;xx&lt;/font&gt;" style="text;html=1;strokeColor=none;fillColor=none;align=left;verticalAlign=middle;whiteSpace=wrap;rounded=0;labelBackgroundColor=none;fontFamily=Courier New;fontSize=16;fontColor=#FFFFFF;container=0;" parent="51" vertex="1">
                    <mxGeometry x="25" y="1" width="30" height="10" as="geometry"/>
                </mxCell>
                <mxCell id="55" value="" style="edgeStyle=segmentEdgeStyle;endArrow=block;html=1;curved=0;rounded=0;endSize=1.2557692307692307;startSize=8;strokeWidth=1;fontFamily=Courier New;fontSize=12;fontColor=default;shape=flexArrow;endWidth=1.945266272189349;endFill=0;width=2.8846153846153846;" parent="51" edge="1">
                    <mxGeometry width="50" height="50" relative="1" as="geometry">
                        <mxPoint x="4" y="9" as="sourcePoint"/>
                        <mxPoint x="17" y="-1" as="targetPoint"/>
                        <Array as="points">
                            <mxPoint x="17" y="9"/>
                        </Array>
                    </mxGeometry>
                </mxCell>
                <mxCell id="56" value="" style="edgeStyle=segmentEdgeStyle;endArrow=block;html=1;curved=0;rounded=0;endSize=1.2557692307692307;startSize=8;strokeWidth=1;fontFamily=Courier New;fontSize=12;fontColor=default;shape=flexArrow;endWidth=1.945266272189349;endFill=0;width=2.8846153846153846;" parent="51" edge="1">
                    <mxGeometry width="50" height="50" relative="1" as="geometry">
                        <mxPoint x="13" as="sourcePoint"/>
                        <mxPoint x="-1.1368683772161603e-13" y="10" as="targetPoint"/>
                        <Array as="points">
                            <mxPoint/>
                        </Array>
                    </mxGeometry>
                </mxCell>
                <mxCell id="57" value="" style="rounded=0;whiteSpace=wrap;html=1;" parent="1" vertex="1">
                    <mxGeometry x="200" y="420" width="620" height="120" as="geometry"/>
                </mxCell>
                <mxCell id="58" value="" style="ellipse;whiteSpace=wrap;html=1;aspect=fixed;" parent="1" vertex="1">
                    <mxGeometry x="250" y="432.5" width="25" height="25" as="geometry"/>
                </mxCell>
                <mxCell id="59" value="" style="shape=actor;whiteSpace=wrap;html=1;" parent="1" vertex="1">
                    <mxGeometry x="258" y="440.5" width="10" height="15" as="geometry"/>
                </mxCell>
                <mxCell id="60" value="Username" style="text;strokeColor=none;fillColor=none;align=left;verticalAlign=middle;spacingLeft=4;spacingRight=4;overflow=hidden;points=[[0,0.5],[1,0.5]];portConstraint=eastwest;rotatable=0;whiteSpace=wrap;html=1;labelPosition=center;verticalLabelPosition=middle;fontStyle=1" parent="1" vertex="1">
                    <mxGeometry x="279" y="430" width="80" height="30" as="geometry"/>
                </mxCell>
                <mxCell id="61" value="&lt;span style=&quot;color: rgb(240, 240, 240); font-family: Helvetica; font-size: 12px; font-style: normal; font-variant-ligatures: normal; font-variant-caps: normal; font-weight: 400; letter-spacing: normal; orphans: 2; text-indent: 0px; text-transform: none; widows: 2; word-spacing: 0px; -webkit-text-stroke-width: 0px; background-color: rgb(42, 37, 47); text-decoration-thickness: initial; text-decoration-style: initial; text-decoration-color: initial; float: none; display: inline !important;&quot;&gt;&amp;nbsp;@username&lt;/span&gt;" style="text;whiteSpace=wrap;html=1;align=left;labelPosition=center;verticalLabelPosition=middle;verticalAlign=middle;fillColor=none;" parent="1" vertex="1">
                    <mxGeometry x="349" y="430" width="100" height="30" as="geometry"/>
                </mxCell>
                <mxCell id="62" value="Lorem ipsum dolor sit, amet consectetur adipisicing elit. Quod tenetur voluptas est facere. Repudiandae deleniti iure aperiam ipsam vero doloribus voluptate magni, inventore magnam! Et velit ipsum porro deserunt harum!" style="text;strokeColor=none;fillColor=none;align=left;verticalAlign=middle;spacingLeft=4;spacingRight=4;overflow=hidden;points=[[0,0.5],[1,0.5]];portConstraint=eastwest;rotatable=0;whiteSpace=wrap;labelPosition=center;verticalLabelPosition=middle;fontFamily=Courier New;labelBackgroundColor=none;fontColor=default;" parent="1" vertex="1">
                    <mxGeometry x="279" y="450" width="500" height="69.5" as="geometry"/>
                </mxCell>
                <mxCell id="63" value="" style="group" parent="1" vertex="1" connectable="0">
                    <mxGeometry x="660" y="520" width="116" height="11" as="geometry"/>
                </mxCell>
                <mxCell id="64" value="♡" style="text;strokeColor=none;fillColor=none;align=left;verticalAlign=middle;whiteSpace=wrap;rounded=0;labelBackgroundColor=none;fontFamily=Courier New;fontSize=16;fontColor=#FFFFFF;fontStyle=1;container=0;" parent="63" vertex="1">
                    <mxGeometry x="65" y="1" width="22" height="10" as="geometry"/>
                </mxCell>
                <mxCell id="65" value="&lt;font style=&quot;font-size: 11px;&quot;&gt;xx&lt;/font&gt;" style="text;html=1;strokeColor=none;fillColor=none;align=left;verticalAlign=middle;whiteSpace=wrap;rounded=0;labelBackgroundColor=none;fontFamily=Courier New;fontSize=16;fontColor=#FFFFFF;container=0;" parent="63" vertex="1">
                    <mxGeometry x="86" width="30" height="10" as="geometry"/>
                </mxCell>
                <mxCell id="66" value="&lt;font style=&quot;font-size: 11px;&quot;&gt;xx&lt;/font&gt;" style="text;html=1;strokeColor=none;fillColor=none;align=left;verticalAlign=middle;whiteSpace=wrap;rounded=0;labelBackgroundColor=none;fontFamily=Courier New;fontSize=16;fontColor=#FFFFFF;container=0;" parent="63" vertex="1">
                    <mxGeometry x="25" y="1" width="30" height="10" as="geometry"/>
                </mxCell>
                <mxCell id="67" value="" style="edgeStyle=segmentEdgeStyle;endArrow=block;html=1;curved=0;rounded=0;endSize=1.2557692307692307;startSize=8;strokeWidth=1;fontFamily=Courier New;fontSize=12;fontColor=default;shape=flexArrow;endWidth=1.945266272189349;endFill=0;width=2.8846153846153846;" parent="63" edge="1">
                    <mxGeometry width="50" height="50" relative="1" as="geometry">
                        <mxPoint x="4" y="9" as="sourcePoint"/>
                        <mxPoint x="17" y="-1" as="targetPoint"/>
                        <Array as="points">
                            <mxPoint x="17" y="9"/>
                        </Array>
                    </mxGeometry>
                </mxCell>
                <mxCell id="68" value="" style="edgeStyle=segmentEdgeStyle;endArrow=block;html=1;curved=0;rounded=0;endSize=1.2557692307692307;startSize=8;strokeWidth=1;fontFamily=Courier New;fontSize=12;fontColor=default;shape=flexArrow;endWidth=1.945266272189349;endFill=0;width=2.8846153846153846;" parent="63" edge="1">
                    <mxGeometry width="50" height="50" relative="1" as="geometry">
                        <mxPoint x="13" as="sourcePoint"/>
                        <mxPoint x="-1.1368683772161603e-13" y="10" as="targetPoint"/>
                        <Array as="points">
                            <mxPoint/>
                        </Array>
                    </mxGeometry>
                </mxCell>
                <mxCell id="71" value="" style="rounded=0;whiteSpace=wrap;html=1;" parent="1" vertex="1">
                    <mxGeometry x="200" y="540" width="620" height="120" as="geometry"/>
                </mxCell>
                <mxCell id="72" value="" style="ellipse;whiteSpace=wrap;html=1;aspect=fixed;" parent="1" vertex="1">
                    <mxGeometry x="250" y="552.5" width="25" height="25" as="geometry"/>
                </mxCell>
                <mxCell id="73" value="" style="shape=actor;whiteSpace=wrap;html=1;" parent="1" vertex="1">
                    <mxGeometry x="258" y="560.5" width="10" height="15" as="geometry"/>
                </mxCell>
                <mxCell id="74" value="Username" style="text;strokeColor=none;fillColor=none;align=left;verticalAlign=middle;spacingLeft=4;spacingRight=4;overflow=hidden;points=[[0,0.5],[1,0.5]];portConstraint=eastwest;rotatable=0;whiteSpace=wrap;html=1;labelPosition=center;verticalLabelPosition=middle;fontStyle=1" parent="1" vertex="1">
                    <mxGeometry x="279" y="550" width="80" height="30" as="geometry"/>
                </mxCell>
                <mxCell id="75" value="&lt;span style=&quot;color: rgb(240, 240, 240); font-family: Helvetica; font-size: 12px; font-style: normal; font-variant-ligatures: normal; font-variant-caps: normal; font-weight: 400; letter-spacing: normal; orphans: 2; text-indent: 0px; text-transform: none; widows: 2; word-spacing: 0px; -webkit-text-stroke-width: 0px; background-color: rgb(42, 37, 47); text-decoration-thickness: initial; text-decoration-style: initial; text-decoration-color: initial; float: none; display: inline !important;&quot;&gt;&amp;nbsp;@username&lt;/span&gt;" style="text;whiteSpace=wrap;html=1;align=left;labelPosition=center;verticalLabelPosition=middle;verticalAlign=middle;fillColor=none;" parent="1" vertex="1">
                    <mxGeometry x="349" y="550" width="100" height="30" as="geometry"/>
                </mxCell>
                <mxCell id="76" value="Lorem ipsum dolor sit, amet consectetur adipisicing elit. Quod tenetur voluptas est facere. Repudiandae deleniti iure aperiam ipsam vero doloribus voluptate magni, inventore magnam! Et velit ipsum porro deserunt harum!" style="text;strokeColor=none;fillColor=none;align=left;verticalAlign=middle;spacingLeft=4;spacingRight=4;overflow=hidden;points=[[0,0.5],[1,0.5]];portConstraint=eastwest;rotatable=0;whiteSpace=wrap;labelPosition=center;verticalLabelPosition=middle;fontFamily=Courier New;labelBackgroundColor=none;fontColor=default;" parent="1" vertex="1">
                    <mxGeometry x="279" y="570" width="500" height="69.5" as="geometry"/>
                </mxCell>
                <mxCell id="77" value="" style="group" parent="1" vertex="1" connectable="0">
                    <mxGeometry x="660" y="640" width="116" height="11" as="geometry"/>
                </mxCell>
                <mxCell id="78" value="♡" style="text;strokeColor=none;fillColor=none;align=left;verticalAlign=middle;whiteSpace=wrap;rounded=0;labelBackgroundColor=none;fontFamily=Courier New;fontSize=16;fontColor=#FFFFFF;fontStyle=1;container=0;" parent="77" vertex="1">
                    <mxGeometry x="65" y="1" width="22" height="10" as="geometry"/>
                </mxCell>
                <mxCell id="79" value="&lt;font style=&quot;font-size: 11px;&quot;&gt;xx&lt;/font&gt;" style="text;html=1;strokeColor=none;fillColor=none;align=left;verticalAlign=middle;whiteSpace=wrap;rounded=0;labelBackgroundColor=none;fontFamily=Courier New;fontSize=16;fontColor=#FFFFFF;container=0;" parent="77" vertex="1">
                    <mxGeometry x="86" width="30" height="10" as="geometry"/>
                </mxCell>
                <mxCell id="80" value="&lt;font style=&quot;font-size: 11px;&quot;&gt;xx&lt;/font&gt;" style="text;html=1;strokeColor=none;fillColor=none;align=left;verticalAlign=middle;whiteSpace=wrap;rounded=0;labelBackgroundColor=none;fontFamily=Courier New;fontSize=16;fontColor=#FFFFFF;container=0;" parent="77" vertex="1">
                    <mxGeometry x="25" y="1" width="30" height="10" as="geometry"/>
                </mxCell>
                <mxCell id="81" value="" style="edgeStyle=segmentEdgeStyle;endArrow=block;html=1;curved=0;rounded=0;endSize=1.2557692307692307;startSize=8;strokeWidth=1;fontFamily=Courier New;fontSize=12;fontColor=default;shape=flexArrow;endWidth=1.945266272189349;endFill=0;width=2.8846153846153846;" parent="77" edge="1">
                    <mxGeometry width="50" height="50" relative="1" as="geometry">
                        <mxPoint x="4" y="9" as="sourcePoint"/>
                        <mxPoint x="17" y="-1" as="targetPoint"/>
                        <Array as="points">
                            <mxPoint x="17" y="9"/>
                        </Array>
                    </mxGeometry>
                </mxCell>
                <mxCell id="82" value="" style="edgeStyle=segmentEdgeStyle;endArrow=block;html=1;curved=0;rounded=0;endSize=1.2557692307692307;startSize=8;strokeWidth=1;fontFamily=Courier New;fontSize=12;fontColor=default;shape=flexArrow;endWidth=1.945266272189349;endFill=0;width=2.8846153846153846;" parent="77" edge="1">
                    <mxGeometry width="50" height="50" relative="1" as="geometry">
                        <mxPoint x="13" as="sourcePoint"/>
                        <mxPoint x="-1.1368683772161603e-13" y="10" as="targetPoint"/>
                        <Array as="points">
                            <mxPoint/>
                        </Array>
                    </mxGeometry>
                </mxCell>
                <mxCell id="86" value="Notifications" style="rounded=0;whiteSpace=wrap;html=1;fontSize=16;glass=0;shadow=0;align=left;spacingLeft=24;" parent="1" vertex="1">
                    <mxGeometry y="490" width="200" height="59" as="geometry"/>
                </mxCell>
                <mxCell id="87" value="Messages" style="rounded=0;whiteSpace=wrap;html=1;fontSize=16;glass=0;shadow=0;align=left;spacingLeft=24;" parent="1" vertex="1">
                    <mxGeometry y="549.5" width="200" height="59" as="geometry"/>
                </mxCell>
                <mxCell id="88" value="Settings" style="rounded=0;whiteSpace=wrap;html=1;fontSize=16;glass=0;shadow=0;align=left;spacingLeft=24;" parent="1" vertex="1">
                    <mxGeometry y="608.5" width="200" height="59" as="geometry"/>
                </mxCell>
                <mxCell id="90" value="" style="rounded=0;whiteSpace=wrap;html=1;fillColor=#009999;" parent="1" vertex="1">
                    <mxGeometry x="510" y="60" width="310" height="40" as="geometry"/>
                </mxCell>
                <mxCell id="91" value="Log out" style="rounded=0;whiteSpace=wrap;html=1;fontSize=16;glass=0;shadow=0;align=left;spacingLeft=24;" parent="1" vertex="1">
                    <mxGeometry y="667.5" width="200" height="62.5" as="geometry"/>
                </mxCell>
                <mxCell id="93" value="1" style="ellipse;whiteSpace=wrap;html=1;rounded=0;shadow=0;glass=0;labelBackgroundColor=none;fontFamily=Courier New;fontSize=14;fontColor=default;fillColor=#FF3333;fontStyle=1;strokeWidth=1.5;align=center;" parent="1" vertex="1">
                    <mxGeometry x="160" y="509.5" width="20" height="20" as="geometry"/>
                </mxCell>
                <mxCell id="70" value="&lt;span style=&quot;font-size: 12px; font-family: &amp;quot;segoe ui emoji&amp;quot;; text-align: start;&quot;&gt;&lt;font style=&quot;font-size: 13px;&quot;&gt;🔄&amp;nbsp;&lt;/font&gt;&lt;/span&gt;&lt;span style=&quot;font-family: Helvetica; font-size: 12px;&quot;&gt;See what's new&lt;/span&gt;" style="rounded=0;whiteSpace=wrap;html=1;labelBackgroundColor=none;fontFamily=Courier New;fontSize=11;fontColor=#009999;fillColor=default;strokeColor=#009999;" parent="1" vertex="1">
                    <mxGeometry x="200" y="150" width="620" height="30" as="geometry"/>
                </mxCell>
                <mxCell id="94" value="&lt;font&gt;&lt;span style=&quot;font-size: 12px;&quot;&gt;chocolate&lt;/span&gt;&lt;/font&gt;" style="rounded=1;whiteSpace=wrap;html=1;shadow=0;glass=0;labelBackgroundColor=none;strokeColor=#FFFFFF;strokeWidth=1.5;fontFamily=Courier New;fontSize=14;fontColor=#FFFFFF;fillColor=none;arcSize=50;align=left;spacingLeft=12;" parent="1" vertex="1">
                    <mxGeometry x="530" y="65" width="270" height="30" as="geometry"/>
                </mxCell>
                <mxCell id="95" value="🔍" style="text;whiteSpace=wrap;fontSize=16;fontFamily=Courier New;fontColor=#FFFFFF;align=right;" parent="1" vertex="1">
                    <mxGeometry x="760" y="65" width="30" height="30" as="geometry"/>
                </mxCell>
                <mxCell id="96" value="" style="rounded=0;whiteSpace=wrap;html=1;hachureGap=4;strokeColor=#FFFFFF;fontFamily=Architects Daughter;fontSource=https%3A%2F%2Ffonts.googleapis.com%2Fcss%3Ffamily%3DArchitects%2BDaughter;fontSize=20;fontColor=#FFFFFF;fillColor=default;" vertex="1" parent="1">
                    <mxGeometry x="200" y="100" width="620" height="50" as="geometry"/>
                </mxCell>
                <mxCell id="99" value="Filter:&amp;nbsp;" style="text;strokeColor=none;fillColor=none;align=left;verticalAlign=middle;spacingLeft=4;spacingRight=4;overflow=hidden;points=[[0,0.5],[1,0.5]];portConstraint=eastwest;rotatable=0;whiteSpace=wrap;html=1;labelPosition=center;verticalLabelPosition=middle;" vertex="1" parent="1">
                    <mxGeometry x="240" y="110" width="50" height="30" as="geometry"/>
                </mxCell>
                <mxCell id="101" value="&lt;span style=&quot;font-size: 12px;&quot;&gt;tweets&lt;/span&gt;" style="rounded=1;whiteSpace=wrap;html=1;shadow=0;glass=0;labelBackgroundColor=none;strokeColor=#FFFFFF;strokeWidth=1;fontFamily=Courier New;fontSize=14;fontColor=#FFFFFF;fillColor=none;arcSize=50;align=center;spacingLeft=0;" vertex="1" parent="1">
                    <mxGeometry x="340" y="115" width="60" height="20" as="geometry"/>
                </mxCell>
                <mxCell id="102" value="&lt;span style=&quot;font-size: 12px;&quot;&gt;users&lt;/span&gt;" style="rounded=1;whiteSpace=wrap;html=1;shadow=0;glass=0;labelBackgroundColor=none;strokeColor=#FFFFFF;strokeWidth=1;fontFamily=Courier New;fontSize=14;fontColor=#FFFFFF;fillColor=none;arcSize=50;align=center;spacingLeft=0;" vertex="1" parent="1">
                    <mxGeometry x="409" y="115" width="51" height="20" as="geometry"/>
                </mxCell>
                <mxCell id="103" value="&lt;span style=&quot;font-size: 12px;&quot;&gt;hashtags&lt;/span&gt;" style="rounded=1;whiteSpace=wrap;html=1;shadow=0;glass=0;labelBackgroundColor=none;strokeColor=#FFFFFF;strokeWidth=1;fontFamily=Courier New;fontSize=14;fontColor=#FFFFFF;fillColor=none;arcSize=50;align=center;spacingLeft=0;" vertex="1" parent="1">
                    <mxGeometry x="470" y="115" width="76.5" height="20" as="geometry"/>
                </mxCell>
                <mxCell id="104" value="Order:" style="text;strokeColor=none;fillColor=none;align=left;verticalAlign=middle;spacingLeft=4;spacingRight=4;overflow=hidden;points=[[0,0.5],[1,0.5]];portConstraint=eastwest;rotatable=0;whiteSpace=wrap;html=1;labelPosition=center;verticalLabelPosition=middle;" vertex="1" parent="1">
                    <mxGeometry x="630" y="110" width="50" height="30" as="geometry"/>
                </mxCell>
                <mxCell id="109" value="&lt;font style=&quot;font-size: 14px;&quot;&gt;Latest&lt;/font&gt;" style="rounded=0;whiteSpace=wrap;html=1;sketch=0;hachureGap=4;jiggle=2;curveFitting=1;strokeColor=#FFFFFF;strokeWidth=1;fontFamily=Helvetica;fontSize=20;fontColor=#FFFFFF;fillColor=#009999;verticalAlign=middle;spacing=0;spacingBottom=6;align=left;spacingLeft=12;" vertex="1" parent="1">
                    <mxGeometry x="680" y="115" width="120" height="20" as="geometry"/>
                </mxCell>
                <mxCell id="110" value="&lt;font style=&quot;font-size: 14px;&quot;&gt;Oldest&lt;/font&gt;" style="rounded=0;whiteSpace=wrap;html=1;sketch=0;hachureGap=4;jiggle=2;curveFitting=1;strokeColor=#FFFFFF;strokeWidth=1;fontFamily=Helvetica;fontSize=20;fontColor=#FFFFFF;fillColor=default;verticalAlign=middle;spacing=0;spacingBottom=6;align=left;spacingLeft=12;" vertex="1" parent="1">
                    <mxGeometry x="680" y="135" width="120" height="20" as="geometry"/>
                </mxCell>
                <mxCell id="111" value="&lt;font style=&quot;font-size: 14px;&quot;&gt;Popularity&lt;/font&gt;" style="rounded=0;whiteSpace=wrap;html=1;sketch=0;hachureGap=4;jiggle=2;curveFitting=1;strokeColor=#FFFFFF;strokeWidth=1;fontFamily=Helvetica;fontSize=20;fontColor=#FFFFFF;fillColor=default;verticalAlign=middle;spacing=0;spacingBottom=6;align=left;spacingLeft=12;" vertex="1" parent="1">
                    <mxGeometry x="680" y="155" width="120" height="20" as="geometry"/>
                </mxCell>
                <mxCell id="112" value="&lt;span style=&quot;font-size: 12px;&quot;&gt;all&lt;/span&gt;" style="rounded=1;whiteSpace=wrap;html=1;shadow=0;glass=0;labelBackgroundColor=none;strokeColor=#FFFFFF;strokeWidth=1;fontFamily=Courier New;fontSize=14;fontColor=#FFFFFF;fillColor=#009999;arcSize=50;align=center;spacingLeft=0;" vertex="1" parent="1">
                    <mxGeometry x="289" y="115" width="41" height="20" as="geometry"/>
                </mxCell>
                <mxCell id="113" value="" style="rounded=0;whiteSpace=wrap;html=1;" vertex="1" parent="1">
                    <mxGeometry x="200" y="660" width="620" height="120" as="geometry"/>
                </mxCell>
                <mxCell id="114" value="" style="ellipse;whiteSpace=wrap;html=1;aspect=fixed;" vertex="1" parent="1">
                    <mxGeometry x="250" y="672.5" width="25" height="25" as="geometry"/>
                </mxCell>
                <mxCell id="115" value="" style="shape=actor;whiteSpace=wrap;html=1;" vertex="1" parent="1">
                    <mxGeometry x="258" y="680.5" width="10" height="15" as="geometry"/>
                </mxCell>
                <mxCell id="116" value="Username" style="text;strokeColor=none;fillColor=none;align=left;verticalAlign=middle;spacingLeft=4;spacingRight=4;overflow=hidden;points=[[0,0.5],[1,0.5]];portConstraint=eastwest;rotatable=0;whiteSpace=wrap;html=1;labelPosition=center;verticalLabelPosition=middle;fontStyle=1" vertex="1" parent="1">
                    <mxGeometry x="279" y="670" width="80" height="30" as="geometry"/>
                </mxCell>
                <mxCell id="117" value="&lt;span style=&quot;color: rgb(240, 240, 240); font-family: Helvetica; font-size: 12px; font-style: normal; font-variant-ligatures: normal; font-variant-caps: normal; font-weight: 400; letter-spacing: normal; orphans: 2; text-indent: 0px; text-transform: none; widows: 2; word-spacing: 0px; -webkit-text-stroke-width: 0px; background-color: rgb(42, 37, 47); text-decoration-thickness: initial; text-decoration-style: initial; text-decoration-color: initial; float: none; display: inline !important;&quot;&gt;&amp;nbsp;@username&lt;/span&gt;" style="text;whiteSpace=wrap;html=1;align=left;labelPosition=center;verticalLabelPosition=middle;verticalAlign=middle;fillColor=none;" vertex="1" parent="1">
                    <mxGeometry x="349" y="670" width="100" height="30" as="geometry"/>
                </mxCell>
                <mxCell id="118" value="Lorem ipsum dolor sit, amet consectetur adipisicing elit. Quod tenetur voluptas est facere. Repudiandae deleniti iure aperiam ipsam vero doloribus voluptate magni, inventore magnam! Et velit ipsum porro deserunt harum!" style="text;strokeColor=none;fillColor=none;align=left;verticalAlign=middle;spacingLeft=4;spacingRight=4;overflow=hidden;points=[[0,0.5],[1,0.5]];portConstraint=eastwest;rotatable=0;whiteSpace=wrap;labelPosition=center;verticalLabelPosition=middle;fontFamily=Courier New;labelBackgroundColor=none;fontColor=default;" vertex="1" parent="1">
                    <mxGeometry x="279" y="690" width="500" height="69.5" as="geometry"/>
                </mxCell>
                <mxCell id="119" value="" style="group" vertex="1" connectable="0" parent="1">
                    <mxGeometry x="660" y="760" width="116" height="11" as="geometry"/>
                </mxCell>
                <mxCell id="120" value="♡" style="text;strokeColor=none;fillColor=none;align=left;verticalAlign=middle;whiteSpace=wrap;rounded=0;labelBackgroundColor=none;fontFamily=Courier New;fontSize=16;fontColor=#FFFFFF;fontStyle=1;container=0;" vertex="1" parent="119">
                    <mxGeometry x="65" y="1" width="22" height="10" as="geometry"/>
                </mxCell>
                <mxCell id="121" value="&lt;font style=&quot;font-size: 11px;&quot;&gt;xx&lt;/font&gt;" style="text;html=1;strokeColor=none;fillColor=none;align=left;verticalAlign=middle;whiteSpace=wrap;rounded=0;labelBackgroundColor=none;fontFamily=Courier New;fontSize=16;fontColor=#FFFFFF;container=0;" vertex="1" parent="119">
                    <mxGeometry x="86" width="30" height="10" as="geometry"/>
                </mxCell>
                <mxCell id="122" value="&lt;font style=&quot;font-size: 11px;&quot;&gt;xx&lt;/font&gt;" style="text;html=1;strokeColor=none;fillColor=none;align=left;verticalAlign=middle;whiteSpace=wrap;rounded=0;labelBackgroundColor=none;fontFamily=Courier New;fontSize=16;fontColor=#FFFFFF;container=0;" vertex="1" parent="119">
                    <mxGeometry x="25" y="1" width="30" height="10" as="geometry"/>
                </mxCell>
                <mxCell id="123" value="" style="edgeStyle=segmentEdgeStyle;endArrow=block;html=1;curved=0;rounded=0;endSize=1.2557692307692307;startSize=8;strokeWidth=1;fontFamily=Courier New;fontSize=12;fontColor=default;shape=flexArrow;endWidth=1.945266272189349;endFill=0;width=2.8846153846153846;" edge="1" parent="119">
                    <mxGeometry width="50" height="50" relative="1" as="geometry">
                        <mxPoint x="4" y="9" as="sourcePoint"/>
                        <mxPoint x="17" y="-1" as="targetPoint"/>
                        <Array as="points">
                            <mxPoint x="17" y="9"/>
                        </Array>
                    </mxGeometry>
                </mxCell>
                <mxCell id="124" value="" style="edgeStyle=segmentEdgeStyle;endArrow=block;html=1;curved=0;rounded=0;endSize=1.2557692307692307;startSize=8;strokeWidth=1;fontFamily=Courier New;fontSize=12;fontColor=default;shape=flexArrow;endWidth=1.945266272189349;endFill=0;width=2.8846153846153846;" edge="1" parent="119">
                    <mxGeometry width="50" height="50" relative="1" as="geometry">
                        <mxPoint x="13" as="sourcePoint"/>
                        <mxPoint x="-1.1368683772161603e-13" y="10" as="targetPoint"/>
                        <Array as="points">
                            <mxPoint/>
                        </Array>
                    </mxGeometry>
                </mxCell>
                <mxCell id="125" value="" style="rounded=0;whiteSpace=wrap;html=1;sketch=0;hachureGap=4;jiggle=2;curveFitting=1;strokeColor=#009999;strokeWidth=1;fontFamily=Helvetica;fontSize=14;fontColor=#FFFFFF;fillColor=#009999;opacity=40;" vertex="1" parent="1">
                    <mxGeometry x="285" y="317.5" width="56" height="12.5" as="geometry"/>
                </mxCell>
                <mxCell id="126" value="" style="rounded=0;whiteSpace=wrap;html=1;sketch=0;hachureGap=4;jiggle=2;curveFitting=1;strokeColor=#009999;strokeWidth=1;fontFamily=Helvetica;fontSize=14;fontColor=#FFFFFF;fillColor=#009999;opacity=40;" vertex="1" parent="1">
                    <mxGeometry x="392" y="245" width="66" height="12.5" as="geometry"/>
                </mxCell>
                <mxCell id="127" value="" style="rounded=0;whiteSpace=wrap;html=1;sketch=0;hachureGap=4;jiggle=2;curveFitting=1;strokeColor=#009999;strokeWidth=1;fontFamily=Helvetica;fontSize=14;fontColor=#FFFFFF;fillColor=#009999;opacity=40;" vertex="1" parent="1">
                    <mxGeometry x="490" y="455.5" width="76" height="12.5" as="geometry"/>
                </mxCell>
                <mxCell id="129" value="" style="rounded=0;whiteSpace=wrap;html=1;sketch=0;hachureGap=4;jiggle=2;curveFitting=1;strokeColor=#009999;strokeWidth=1;fontFamily=Helvetica;fontSize=14;fontColor=#FFFFFF;fillColor=#009999;opacity=40;" vertex="1" parent="1">
                    <mxGeometry x="330" y="620" width="56" height="12.5" as="geometry"/>
                </mxCell>
                <mxCell id="130" value="" style="line;strokeWidth=2;direction=south;html=1;hachureGap=4;strokeColor=#009999;fontFamily=Helvetica;fontSize=14;fontColor=#FFFFFF;fillColor=#B0B0B0;opacity=40;" vertex="1" parent="1">
                    <mxGeometry x="590" y="115" width="10" height="20" as="geometry"/>
                </mxCell>
            </root>
        </mxGraphModel>
    </diagram>
</mxfile>